<svg width="65" height="109" viewBox="0 0 65 109" fill="none" xmlns="http://www.w3.org/2000/svg">
<path fill-rule="evenodd" clip-rule="evenodd" d="M0.75 77.3281C0.335786 77.3281 -1.46777e-08 76.9923 -3.27835e-08 76.5781L-1.97219e-06 32.2097C-1.9903e-06 31.7955 0.335784 31.4597 0.749998 31.4597C1.16421 31.4597 1.5 31.7955 1.5 32.2097L1.5 76.5781C1.5 76.9923 1.16421 77.3281 0.75 77.3281Z" fill="#BBBBBF" style="fill:#BBBBBF;fill:color(display-p3 0.7333 0.7333 0.7490);fill-opacity:1;"/>
<path fill-rule="evenodd" clip-rule="evenodd" d="M32.1328 108.695C31.7186 108.695 31.3828 108.36 31.3828 107.945L31.3828 63.5769C31.3828 63.1627 31.7186 62.8269 32.1328 62.8269C32.547 62.8269 32.8828 63.1627 32.8828 63.5769L32.8828 107.945C32.8828 108.36 32.547 108.695 32.1328 108.695Z" fill="#BBBBBF" style="fill:#BBBBBF;fill:color(display-p3 0.7333 0.7333 0.7490);fill-opacity:1;"/>
<path fill-rule="evenodd" clip-rule="evenodd" d="M64.0547 77.1641C63.6405 77.1641 63.3047 76.8283 63.3047 76.4141L63.3047 32.7957C63.3047 32.3814 63.6405 32.0457 64.0547 32.0457C64.4689 32.0457 64.8047 32.3814 64.8047 32.7957L64.8047 76.4141C64.8047 76.8283 64.4689 77.1641 64.0547 77.1641Z" fill="#BBBBBF" style="fill:#BBBBBF;fill:color(display-p3 0.7333 0.7333 0.7490);fill-opacity:1;"/>
<path fill-rule="evenodd" clip-rule="evenodd" d="M0.219577 76.0421C0.512419 75.7491 0.987293 75.749 1.28024 76.0419L32.6641 107.415C32.9571 107.708 32.9571 108.183 32.6643 108.476C32.3714 108.768 31.8966 108.769 31.6036 108.476L0.21976 77.1027C-0.0731836 76.8099 -0.0732658 76.335 0.219577 76.0421Z" fill="#BBBBBF" style="fill:#BBBBBF;fill:color(display-p3 0.7333 0.7333 0.7490);fill-opacity:1;"/>
<path fill-rule="evenodd" clip-rule="evenodd" d="M0.383732 32.6553C0.0908391 32.3624 0.0908392 31.8876 0.383733 31.5947L31.7567 0.221732C32.0496 -0.0711608 32.5245 -0.0711608 32.8173 0.221732C33.1102 0.514624 33.1102 0.989499 32.8173 1.28239L1.44439 32.6553C1.1515 32.9482 0.676625 32.9482 0.383732 32.6553Z" fill="#BBBBBF" style="fill:#BBBBBF;fill:color(display-p3 0.7333 0.7333 0.7490);fill-opacity:1;"/>
<path fill-rule="evenodd" clip-rule="evenodd" d="M0.383823 31.5857C0.676768 31.2928 1.15164 31.2929 1.44448 31.5859L32.8174 62.9698C33.1103 63.2627 33.1102 63.7376 32.8173 64.0304C32.5243 64.3233 32.0494 64.3232 31.7566 64.0302L0.383639 32.6463C0.0907964 32.3534 0.0908792 31.8785 0.383823 31.5857Z" fill="#BBBBBF" style="fill:#BBBBBF;fill:color(display-p3 0.7333 0.7333 0.7490);fill-opacity:1;"/>
<path fill-rule="evenodd" clip-rule="evenodd" d="M31.7587 64.0303C31.4658 63.7374 31.4658 63.2626 31.7587 62.9697L63.1426 31.5858C63.4355 31.2929 63.9104 31.2929 64.2033 31.5858C64.4962 31.8787 64.4962 32.3535 64.2033 32.6464L32.8194 64.0303C32.5265 64.3232 32.0516 64.3232 31.7587 64.0303Z" fill="#BBBBBF" style="fill:#BBBBBF;fill:color(display-p3 0.7333 0.7333 0.7490);fill-opacity:1;"/>
<path fill-rule="evenodd" clip-rule="evenodd" d="M31.7586 0.221825C32.0515 -0.0711174 32.5264 -0.0712052 32.8193 0.221638L64.2032 31.5946C64.4961 31.8874 64.4962 32.3623 64.2034 32.6552C63.9105 32.9482 63.4357 32.9483 63.1427 32.6554L31.7588 1.28249C31.4659 0.989643 31.4658 0.514771 31.7586 0.221825Z" fill="#BBBBBF" style="fill:#BBBBBF;fill:color(display-p3 0.7333 0.7333 0.7490);fill-opacity:1;"/>
<path fill-rule="evenodd" clip-rule="evenodd" d="M31.6044 108.476C31.3115 108.183 31.3115 107.708 31.6044 107.415L62.9774 76.042C63.2703 75.7491 63.7451 75.7491 64.038 76.042C64.3309 76.3349 64.3309 76.8097 64.038 77.1026L32.6651 108.476C32.3722 108.769 31.8973 108.769 31.6044 108.476Z" fill="#BBBBBF" style="fill:#BBBBBF;fill:color(display-p3 0.7333 0.7333 0.7490);fill-opacity:1;"/>
</svg>
