<svg xmlns="http://www.w3.org/2000/svg" width="109" height="154" fill="none" viewBox="0 0 109 154"><path fill="color(display-p3 .9686 .9529 .5098)" stroke="color(display-p3 .9686 .9529 .5098)" d="m45.646 31.832-.146.146v42.698l.854-.854 29.185-29.196.146-.146V1.793l-.853.853-29.186 29.186Z"/><path fill="color(display-p3 .7333 .7333 .749)" fill-rule="evenodd" d="M45.205 77.242a.75.75 0 0 1-.75-.75V32.124a.75.75 0 1 1 1.5 0v44.368a.75.75 0 0 1-.75.75Z" clip-rule="evenodd"/><path fill="color(display-p3 .7333 .7333 .749)" fill-rule="evenodd" d="M.088 32.133a.75.75 0 0 1 .75-.75h44.368a.75.75 0 0 1 0 1.5H.838a.75.75 0 0 1-.75-.75Z" clip-rule="evenodd"/><path fill="color(display-p3 .7333 .7333 .749)" fill-rule="evenodd" d="M44.675 32.663a.75.75 0 0 1 0-1.06L76.048.229a.75.75 0 1 1 1.06 1.061L45.735 32.663a.75.75 0 0 1-1.06 0Z" clip-rule="evenodd"/><path fill="color(display-p3 .7333 .7333 .749)" fill-rule="evenodd" d="M76.578 45.867a.75.75 0 0 1-.75-.75V.75a.75.75 0 0 1 1.5 0v44.368a.75.75 0 0 1-.75.75Z" clip-rule="evenodd"/><path fill="color(display-p3 .7333 .7333 .749)" fill-rule="evenodd" d="M44.675 77.022a.75.75 0 0 1 0-1.06l31.373-31.373a.75.75 0 1 1 1.06 1.06L45.735 77.023a.75.75 0 0 1-1.06 0Z" clip-rule="evenodd"/><path fill="color(display-p3 .7333 .7333 .749)" fill-rule="evenodd" d="M76.048 44.672a.75.75 0 0 1 1.06 0l31.384 31.384a.75.75 0 0 1-1.06 1.06L76.048 45.732a.75.75 0 0 1 0-1.06Z" clip-rule="evenodd"/><path fill="color(display-p3 .7333 .7333 .749)" fill-rule="evenodd" d="M76.048 108.491a.75.75 0 0 1 0-1.06l31.384-31.373a.75.75 0 1 1 1.06 1.06l-31.384 31.373a.75.75 0 0 1-1.06 0Z" clip-rule="evenodd"/><path fill="color(display-p3 .7333 .7333 .749)" fill-rule="evenodd" d="M107.963 121.711a.75.75 0 0 1-.75-.75V76.593a.75.75 0 0 1 1.5 0v44.368a.75.75 0 0 1-.75.75Z" clip-rule="evenodd"/><path fill="color(display-p3 .7333 .7333 .749)" fill-rule="evenodd" d="M76.048 152.858a.75.75 0 0 1 0-1.06l31.384-31.373a.749.749 0 1 1 1.06 1.061l-31.384 31.373a.75.75 0 0 1-1.06-.001ZM0 120.961a.75.75 0 0 1 .75-.75h44.38a.75.75 0 0 1 0 1.5H.75a.75.75 0 0 1-.75-.75ZM0 76.586a.75.75 0 0 1 .75-.75h44.38a.75.75 0 0 1 0 1.5H.75a.75.75 0 0 1-.75-.75Z" clip-rule="evenodd"/><path fill="color(display-p3 .7333 .7333 .749)" fill-rule="evenodd" d="M45.129 121.711a.75.75 0 0 1-.75-.75V76.593a.75.75 0 0 1 1.5 0v44.368a.75.75 0 0 1-.75.75Z" clip-rule="evenodd"/><path fill="color(display-p3 .7333 .7333 .749)" fill-rule="evenodd" d="M44.599 120.425a.75.75 0 0 1 1.06 0l31.373 31.373a.75.75 0 1 1-1.06 1.06l-31.373-31.373a.75.75 0 0 1 0-1.06Z" clip-rule="evenodd"/><path fill="color(display-p3 .7333 .7333 .749)" fill-rule="evenodd" d="M76.502 153.078a.75.75 0 0 1-.75-.75V107.96a.75.75 0 1 1 1.5 0v44.368a.75.75 0 0 1-.75.75Z" clip-rule="evenodd"/><path fill="color(display-p3 .7333 .7333 .749)" fill-rule="evenodd" d="M44.599 76.058a.75.75 0 0 1 1.06 0l31.373 31.373a.75.75 0 1 1-1.06 1.06L44.599 77.118a.75.75 0 0 1 0-1.06ZM.75 121.711a.75.75 0 0 1-.75-.75V76.593a.75.75 0 0 1 1.5 0v44.368a.75.75 0 0 1-.75.75Z" clip-rule="evenodd"/><path fill="color(display-p3 .7333 .7333 .749)" fill-rule="evenodd" d="M.75 77.336a.75.75 0 0 1-.75-.75v-44.38a.75.75 0 1 1 1.5 0v44.38a.75.75 0 0 1-.75.75Z" clip-rule="evenodd"/></svg>