<svg xmlns="http://www.w3.org/2000/svg" width="109" height="110" fill="none" viewBox="0 0 109 110"><path fill="color(display-p3 .9686 .9529 .5098)" d="m31.998 64 31-31-31-31-31 31 31 31Z"/><path fill="color(display-p3 .7333 .7333 .749)" fill-rule="evenodd" d="M32.412 109.398a.75.75 0 0 1-.75-.75V64.28a.75.75 0 0 1 1.5 0v44.368a.75.75 0 0 1-.75.75Z" clip-rule="evenodd"/><path fill="color(display-p3 .7333 .7333 .749)" fill-rule="evenodd" d="M31.662 108.648a.75.75 0 0 1 .75-.75h44.369a.75.75 0 0 1 0 1.5H32.412a.75.75 0 0 1-.75-.75Z" clip-rule="evenodd"/><path fill="color(display-p3 .7333 .7333 .749)" fill-rule="evenodd" d="m1.79 76.957 31.152 31.153a.75.75 0 0 1-1.06 1.061L.567 77.856a.749.749 0 0 1-.278-.583V32.905a.748.748 0 0 1 .22-.537L31.882.984a.749.749 0 0 1 .646-.21h44.028a.75.75 0 0 1 .844.15l31.372 31.374a.75.75 0 0 1-.08 1.13.744.744 0 0 1-.073.067l-31.09 31.09v44.056a.75.75 0 0 1-1.5 0V65.023H32.52a.749.749 0 0 1-.638-.211L1.789 34.719v42.238Zm.305-44.054 30.313 30.314 30.314-30.314L32.408 2.58 2.095 32.903Zm74.374 30.62 29.867-29.867H64.09L34.223 63.523h42.246Zm.158-61.25 29.883 29.883H64.096L34.223 2.273h42.404Zm-42.404 0-1.184-.346a.75.75 0 0 0 .107-.566l1.077.912Z" clip-rule="evenodd"/></svg>